name C:\Users\Nicos\Documents\OpenSimProjects\SprintingProject\Study1\PredictiveResults\IC_pred_Sprinting_optimum_27-October-2023__11-17-52___IKTD_Plus_2_p02_maxVel_01.mot
datacolumns 38
datarows 6
range 0.16022163 0.16503689
endheader
                time	/jointset/ground_pelvis/pelvis_tilt/value	/jointset/ground_pelvis/pelvis_list/value	/jointset/ground_pelvis/pelvis_rotation/value	/jointset/ground_pelvis/pelvis_tx/value	/jointset/ground_pelvis/pelvis_ty/value	/jointset/ground_pelvis/pelvis_tz/value	/jointset/hip_r/hip_flexion_r/value	/jointset/hip_r/hip_adduction_r/value	/jointset/hip_r/hip_rotation_r/value	/jointset/knee_r/knee_angle_r/value	/jointset/ankle_r/ankle_angle_r/value	/jointset/subtalar_r/subtalar_angle_r/value	/jointset/mtp_r/mtp_angle_r/value	/jointset/hip_l/hip_flexion_l/value	/jointset/hip_l/hip_adduction_l/value	/jointset/hip_l/hip_rotation_l/value	/jointset/knee_l/knee_angle_l/value	/jointset/ankle_l/ankle_angle_l/value	/jointset/subtalar_l/subtalar_angle_l/value	/jointset/mtp_l/mtp_angle_l/value	/jointset/back/lumbar_extension/value	/jointset/back/lumbar_bending/value	/jointset/back/lumbar_rotation/value	/jointset/acromial_r/arm_flex_r/value	/jointset/acromial_r/arm_add_r/value	/jointset/acromial_r/arm_rot_r/value	/jointset/elbow_r/elbow_flex_r/value	/jointset/radioulnar_r/pro_sup_r/value	/jointset/radius_hand_r/wrist_flex_r/value	/jointset/radius_hand_r/wrist_dev_r/value	/jointset/acromial_l/arm_flex_l/value	/jointset/acromial_l/arm_add_l/value	/jointset/acromial_l/arm_rot_l/value	/jointset/elbow_l/elbow_flex_l/value	/jointset/radioulnar_l/pro_sup_l/value	/jointset/radius_hand_l/wrist_flex_l/value	/jointset/radius_hand_l/wrist_dev_l/value	
          0.16022163	         -9.71264901	          5.94432658	        -16.47293107	          1.24874218	          0.96264258	          0.30671074	         -2.20791332	        -14.99503680	          8.36356218	        -52.10667660	        -30.41116886	        -13.75135183	         -8.96329593	         84.73567908	        -11.23019246	          1.57658043	        -99.87966354	         -9.92751681	        -23.00263048	         15.66630325	         -9.76283274	         -3.53268583	         10.84229312	         87.63260747	          0.94575605	         -0.00545309	        100.15633902	         80.06122993	         -7.68807963	          7.91838536	        -74.34987867	          0.96270641	         -0.00000337	         74.81948426	         52.74738137	        -11.23495763	          7.68077242	
          0.16086802	         -9.71911840	          5.94056796	        -16.41409039	          1.25612992	          0.96288593	          0.30682705	         -2.21857794	        -14.97132626	          8.42649966	        -52.51761105	        -30.48857105	        -13.65237075	         -8.87890903	         84.71311055	        -11.26835925	          1.52228587	        -99.10215425	        -10.19258588	        -23.05123241	         15.66634811	         -9.81519254	         -3.59233690	         10.82022928	         87.66443094	          0.92703347	         -0.00998010	        100.05409583	         79.92678093	         -7.58728389	          7.89846058	        -74.24748187	          0.96389362	         -0.00088764	         74.26096435	         52.76355956	        -11.34846917	          7.66114185	
          0.16291034	         -9.72854265	          5.93340728	        -16.22982105	          1.27943700	          0.96369902	          0.30721107	         -2.24016642	        -14.89342369	          8.62851002	        -53.83460451	        -30.68409073	        -13.31446578	         -8.62600154	         84.57112239	        -11.38480720	          1.32273811	        -96.59984531	        -11.03184484	        -23.20402674	         15.66635585	         -9.99698950	         -3.79543020	         10.75587625	         87.70751813	          0.82472607	         -0.04177186	         99.80657576	         79.49030151	         -7.26879934	          7.83547831	        -73.88930839	          0.94631566	         -0.02880982	         72.55751112	         52.83069772	        -11.70714358	          7.60013158	
          0.16439050	         -9.71798598	          5.92901407	        -16.09704490	          1.29630264	          0.96433864	          0.30750293	         -2.25554596	        -14.83334053	          8.77231869	        -54.80134245	        -30.78236461	        -13.08219865	         -8.46089625	         84.39479723	        -11.46314837	          1.15468653	        -94.74887500	        -11.63293471	        -23.30645665	         15.66633951	        -10.15248270	         -3.95388661	         10.71346709	         87.68556213	          0.70960739	         -0.08317174	         99.69551330	         79.16299044	         -7.03799274	          7.78987026	        -73.59997563	          0.91397221	         -0.07764951	         71.38843431	         52.89427937	        -11.96705700	          7.55535598	
          0.16439050	         -9.71798598	          5.92901407	        -16.09704490	          1.29630264	          0.96433864	          0.30750293	         -2.25554596	        -14.83334053	          8.77231869	        -54.80134245	        -30.78236461	        -13.08219865	         -8.46089625	         84.39479723	        -11.46314837	          1.15468653	        -94.74887500	        -11.63293471	        -23.30645665	         15.66633951	        -10.15248270	         -3.95388661	         10.71346709	         87.68556213	          0.70960739	         -0.08317174	         99.69551330	         79.16299044	         -7.03799274	          7.78987026	        -73.59997563	          0.91397221	         -0.07764951	         71.38843431	         52.89427937	        -11.96705700	          7.55535598	
          0.16503689	         -9.70705723	          5.92636698	        -16.03911687	          1.30366291	          0.96463332	          0.30763340	         -2.26497887	        -14.80594649	          8.83312905	        -55.22538972	        -30.81465721	        -12.99253376	         -8.39510261	         84.29690908	        -11.49526356	          1.07595571	        -93.93230152	        -11.89127547	        -23.34711877	         15.66682351	        -10.22869412	         -4.02535842	         10.69587834	         87.66235618	          0.64853323	         -0.10631617	         99.66391607	         79.01703825	         -6.93719675	          7.76994415	        -73.46643465	          0.89471950	         -0.10722399	         70.89661076	         52.92590111	        -12.08057336	          7.53549650	
